<svg width="163" height="26" viewBox="0 0 163 26" fill="none" xmlns="http://www.w3.org/2000/svg">
<path d="M36.2073 19.9185C35.1829 19.9185 34.1948 19.7587 33.2576 19.4245C32.3132 19.0975 31.5866 18.6616 31.0708 18.124L31.6448 16.9979C32.1461 17.4992 32.8145 17.8988 33.6427 18.2112C34.4709 18.5236 35.3282 18.6761 36.2073 18.6761C37.4497 18.6761 38.3796 18.4509 38.9972 17.9932C39.6147 17.5355 39.9271 16.947 39.9271 16.2278C39.9271 15.6683 39.76 15.2324 39.4185 14.8982C39.0843 14.5713 38.6702 14.317 38.1835 14.1426C37.6967 13.961 37.021 13.7649 36.1492 13.5542C35.1103 13.2926 34.282 13.0383 33.6645 12.7986C33.0397 12.5516 32.5093 12.181 32.0734 11.6797C31.6302 11.1784 31.405 10.5028 31.405 9.64547C31.405 8.94801 31.5939 8.30867 31.9644 7.73472C32.3277 7.16077 32.8944 6.70306 33.6645 6.36159C34.4273 6.02013 35.3718 5.85303 36.5052 5.85303C37.2971 5.85303 38.0745 5.962 38.8301 6.1727C39.5856 6.39065 40.2395 6.69579 40.7917 7.07359L40.2976 8.24328C39.7237 7.85823 39.0989 7.57488 38.445 7.37872C37.7839 7.18983 37.1373 7.09538 36.5052 7.09538C35.2919 7.09538 34.3837 7.32787 33.7662 7.80011C33.1559 8.26508 32.8508 8.8681 32.8508 9.60188C32.8508 10.1613 33.0179 10.6045 33.3521 10.9387C33.6935 11.2729 34.1149 11.5344 34.6162 11.7088C35.1248 11.8904 35.8077 12.0793 36.665 12.29C37.6822 12.5443 38.4959 12.7913 39.1279 13.0311C39.7527 13.2781 40.2831 13.6486 40.719 14.1426C41.1477 14.6367 41.3656 15.3051 41.3656 16.1479C41.3656 16.8453 41.1767 17.4774 40.8062 18.0513C40.4284 18.6253 39.8545 19.083 39.0771 19.4172C38.2997 19.7514 37.3407 19.9185 36.2073 19.9185V19.9185ZM48.8343 13.2999L46.0081 16.1624V19.8023H44.5478V5.96927H46.0081V14.3243L54.1306 5.96927H55.8162L49.8224 12.2319L56.2303 19.8023H54.4866L48.8343 13.2999V13.2999ZM62.413 15.0217V19.8023H60.9745V15.0217L55.4384 5.96927H57.0004L61.7446 13.7358L66.4815 5.96927H67.9491L62.413 15.0217V15.0217ZM73.7395 19.9185C72.7078 19.9185 71.727 19.7587 70.7825 19.4245C69.838 19.0975 69.1115 18.6616 68.5957 18.124L69.1696 16.9979C69.6709 17.4992 70.3393 17.8988 71.1676 18.2112C71.9958 18.5236 72.8531 18.6761 73.7395 18.6761C74.9746 18.6761 75.9045 18.4509 76.5221 17.9932C77.1396 17.5355 77.452 16.947 77.452 16.2278C77.452 15.6683 77.2849 15.2324 76.9507 14.8982C76.6092 14.5713 76.2024 14.317 75.7156 14.1426C75.2288 13.961 74.5459 13.7649 73.6741 13.5542C72.6352 13.2926 71.8069 13.0383 71.1894 12.7986C70.5646 12.5516 70.0415 12.181 69.5983 11.6797C69.1551 11.1784 68.9372 10.5028 68.9372 9.64547C68.9372 8.94801 69.1188 8.30867 69.4893 7.73472C69.8598 7.16077 70.4265 6.70306 71.1894 6.36159C71.9522 6.02013 72.8967 5.85303 74.0301 5.85303C74.822 5.85303 75.5994 5.962 76.355 6.1727C77.1105 6.39065 77.7644 6.69579 78.3238 7.07359L77.8298 8.24328C77.2486 7.85823 76.631 7.57488 75.9699 7.37872C75.3088 7.18983 74.6622 7.09538 74.0301 7.09538C72.8241 7.09538 71.9086 7.32787 71.2984 7.80011C70.6808 8.26508 70.3757 8.8681 70.3757 9.60188C70.3757 10.1613 70.5428 10.6045 70.8842 10.9387C71.2184 11.2729 71.6398 11.5344 72.1484 11.7088C72.6497 11.8904 73.3326 12.0793 74.1899 12.29C75.207 12.5443 76.028 12.7913 76.6528 13.0311C77.2776 13.2781 77.808 13.6486 78.2439 14.1426C78.6798 14.6367 78.8978 15.3051 78.8978 16.1479C78.8978 16.8453 78.7089 17.4774 78.3311 18.0513C77.9533 18.6253 77.3793 19.083 76.602 19.4172C75.8246 19.7514 74.8728 19.9185 73.7395 19.9185V19.9185ZM88.081 19.9185C86.7152 19.9185 85.4801 19.6206 84.3758 19.0104C83.2787 18.4073 82.4142 17.5646 81.7893 16.4893C81.1645 15.4213 80.8521 14.2153 80.8521 12.8858C80.8521 11.5562 81.1645 10.3502 81.7893 9.28221C82.4142 8.20696 83.2787 7.36419 84.3903 6.76118C85.4946 6.1509 86.7297 5.85303 88.1028 5.85303C89.1272 5.85303 90.079 6.02013 90.9508 6.36159C91.8154 6.70306 92.5564 7.20436 93.1594 7.8655L92.2295 8.79544C91.1542 7.69839 89.7884 7.1535 88.1392 7.1535C87.0494 7.1535 86.054 7.40779 85.1604 7.90182C84.2595 8.40312 83.5621 9.09332 83.0535 9.95788C82.5449 10.8297 82.2906 11.8032 82.2906 12.8858C82.2906 13.9683 82.5449 14.9418 83.0535 15.8064C83.5621 16.6782 84.2595 17.3611 85.1604 17.8624C86.054 18.3637 87.0494 18.618 88.1392 18.618C89.8029 18.618 91.1688 18.0659 92.2295 16.9543L93.1594 17.8842C92.5564 18.5454 91.8154 19.0467 90.9363 19.3954C90.0644 19.7441 89.1127 19.9185 88.081 19.9185V19.9185ZM105.728 19.8023L102.568 15.3559C102.212 15.3923 101.841 15.4141 101.464 15.4141H97.7438V19.8023H96.2835V5.96927H101.464C103.229 5.96927 104.609 6.39065 105.612 7.23342C106.615 8.07618 107.116 9.23862 107.116 10.7135C107.116 11.7887 106.84 12.7041 106.295 13.4452C105.743 14.1935 104.965 14.7311 103.948 15.0581L107.334 19.8023H105.728ZM101.42 14.1717C102.793 14.1717 103.839 13.8666 104.566 13.2636C105.285 12.6533 105.648 11.8032 105.648 10.7135C105.648 9.59462 105.285 8.73006 104.566 8.13431C103.839 7.53129 102.793 7.23342 101.42 7.23342H97.7438V14.1717H101.42ZM119.249 16.1043H111.54L109.877 19.8023H108.358L114.679 5.96927H116.125L122.446 19.8023H120.905L119.249 16.1043ZM118.711 14.92L115.391 7.4877L112.071 14.92H118.711V14.92ZM129.914 5.96927C131.68 5.96927 133.067 6.39065 134.07 7.23342C135.065 8.07618 135.567 9.23862 135.567 10.7135C135.567 12.1883 135.065 13.3435 134.07 14.179C133.067 15.0145 131.68 15.4359 129.914 15.4359H126.202V19.8023H124.741V5.96927H129.914V5.96927ZM129.878 14.1499C131.251 14.1499 132.297 13.852 133.016 13.249C133.743 12.6533 134.106 11.8032 134.106 10.7135C134.106 9.59462 133.743 8.73006 133.016 8.13431C132.297 7.53129 131.251 7.23342 129.878 7.23342H126.202V14.1499H129.878V14.1499ZM148.513 18.5381V19.8023H138.734V5.96927H148.215V7.23342H140.194V12.152H147.343V13.4016H140.194V18.5381H148.513V18.5381ZM161.394 19.8023L158.234 15.3559C157.878 15.3923 157.508 15.4141 157.13 15.4141H153.41V19.8023H151.95V5.96927H157.13C158.895 5.96927 160.276 6.39065 161.278 7.23342C162.281 8.07618 162.782 9.23862 162.782 10.7135C162.782 11.7887 162.506 12.7041 161.961 13.4452C161.416 14.1935 160.632 14.7311 159.622 15.0581L163 19.8023H161.394ZM157.086 14.1717C158.459 14.1717 159.505 13.8666 160.232 13.2636C160.959 12.6533 161.315 11.8032 161.315 10.7135C161.315 9.59462 160.959 8.73006 160.232 8.13431C159.505 7.53129 158.459 7.23342 157.086 7.23342H153.41V14.1717H157.086V14.1717Z" fill="#2E497C"/>
<path fill-rule="evenodd" clip-rule="evenodd" d="M4.86511 1H24.1398V20.9794H4.86511V1Z" stroke="#2E497C" stroke-miterlimit="38.2016"/>
<path fill-rule="evenodd" clip-rule="evenodd" d="M1 7.9165H8.63575V15.5523H1V7.9165Z" stroke="#2E497C" stroke-width="0.75" stroke-miterlimit="38.2016"/>
<path fill-rule="evenodd" clip-rule="evenodd" d="M10.067 7.9165H17.7028V15.5523H10.067V7.9165Z" stroke="#2E497C" stroke-width="0.75" stroke-miterlimit="38.2016"/>
<path fill-rule="evenodd" clip-rule="evenodd" d="M1 17.136H8.63575V24.7717H1V17.136Z" fill="#2E497C" stroke="#2E497C" stroke-width="0.75" stroke-miterlimit="38.2016"/>
<path fill-rule="evenodd" clip-rule="evenodd" d="M10.067 17.136H17.7028V24.7717H10.067V17.136Z" stroke="#2E497C" stroke-width="0.75" stroke-miterlimit="38.2016"/>
</svg>
